<svg xmlns="http://www.w3.org/2000/svg" width="16" height="16" viewBox="0 0 16 16" fill="none">
  <rect width="16" height="16" rx="2" fill="#3b82f6"/>
  <path d="M8 4C5.79086 4 4 5.79086 4 8C4 10.2091 5.79086 12 8 12C10.2091 12 12 10.2091 12 8C12 5.79086 10.2091 4 8 4ZM3 8C3 5.23858 5.23858 3 8 3C10.7614 3 13 5.23858 13 8C13 10.7614 10.7614 13 8 13C5.23858 13 3 10.7614 3 8Z" fill="white"/>
  <path d="M8.5 6.5C8.5 6.77614 8.27614 7 8 7C7.72386 7 7.5 6.77614 7.5 6.5C7.5 6.22386 7.72386 6 8 6C8.27614 6 8.5 6.22386 8.5 6.5Z" fill="white"/>
  <path d="M7 8.5C7 8.22386 7.22386 8 7.5 8H8.5C8.77614 8 9 8.22386 9 8.5V10C9 10.2761 8.77614 10.5 8.5 10.5C8.22386 10.5 8 10.2761 8 10V8.99995H7.5C7.22386 8.99995 7 8.77609 7 8.49995V8.5Z" fill="white"/>
</svg>
