<svg xmlns="http://www.w3.org/2000/svg" width="48" height="48" viewBox="0 0 48 48" fill="none">
  <rect width="48" height="48" rx="6" fill="#3b82f6"/>
  <path d="M24 14C18.4772 14 14 18.4772 14 24C14 29.5228 18.4772 34 24 34C29.5228 34 34 29.5228 34 24C34 18.4772 29.5228 14 24 14ZM12 24C12 17.3726 17.3726 12 24 12C30.6274 12 36 17.3726 36 24C36 30.6274 30.6274 36 24 36C17.3726 36 12 30.6274 12 24Z" fill="white"/>
  <path d="M25 20C25 20.5523 24.5523 21 24 21C23.4477 21 23 20.5523 23 20C23 19.4477 23.4477 19 24 19C24.5523 19 25 19.4477 25 20Z" fill="white"/>
  <path d="M22 25C22 24.4477 22.4477 24 23 24H25C25.5523 24 26 24.4477 26 25V29C26 29.5523 25.5523 30 25 30C24.4477 30 24 29.5523 24 29V25.9999H23C22.4477 25.9999 22 25.5522 22 24.9999V25Z" fill="white"/>
</svg>
