<svg xmlns="http://www.w3.org/2000/svg" width="128" height="128" viewBox="0 0 128 128" fill="none">
  <rect width="128" height="128" rx="16" fill="#3b82f6"/>
  <path d="M64 40C50.7452 40 40 50.7452 40 64C40 77.2548 50.7452 88 64 88C77.2548 88 88 77.2548 88 64C88 50.7452 77.2548 40 64 40ZM36 64C36 48.536 48.536 36 64 36C79.464 36 92 48.536 92 64C92 79.464 79.464 92 64 92C48.536 92 36 79.464 36 64Z" fill="white"/>
  <path d="M68 52C68 54.2091 66.2091 56 64 56C61.7909 56 60 54.2091 60 52C60 49.7909 61.7909 48 64 48C66.2091 48 68 49.7909 68 52Z" fill="white"/>
  <path d="M56 68C56 65.7909 57.7909 64 60 64H68C70.2091 64 72 65.7909 72 68V76C72 78.2091 70.2091 80 68 80C65.7909 80 64 78.2091 64 76V68.0001H60C57.7909 68.0001 56 66.2092 56 64.0001V68Z" fill="white"/>
</svg>
